<svg id="Layer_1" data-name="Layer 1" xmlns="http://www.w3.org/2000/svg" viewBox="0 0 772 758.17"><defs><style>.cls-1{fill:#dd6b20;}</style></defs><path class="cls-1" d="M1002.2,5Q683.45,4.86,364.68,5a128.07,128.07,0,0,0-27.17,2.73c-19.91,4.39-33,16.17-37.48,34.93A110.5,110.5,0,0,0,297.15,68q-.31,115-.14,230.1v85.95h.64q0,18.46,0,36.93c-.14,96-.83,192.1-.12,288.15.25,33.92,20.58,51.53,57,53.69,4.56.27,9.14.26,13.72.26q315,0,630,0c7.47,0,15.05,0,22.38-1.13,27.06-4.12,41.93-18,46.57-43.22a115.82,115.82,0,0,0,1.65-20.8q.13-315.52.06-631C1069,24.67,1047.71,5,1002.2,5ZM957.54,190.79c26.88,0,48.66,22.38,48.66,50s-21.78,50-48.66,50-48.66-22.37-48.66-50S930.67,190.79,957.54,190.79ZM973.07,328c-16.93-12.66-37.34-10.17-52.87,6.48a43.9,43.9,0,0,1-7.66,7.09,2.13,2.13,0,0,1-3.37-1.75c.32-3.57.57-7.16,1.76-10.46,7.14-19.87,31.06-32.38,53.77-28.6,27,4.48,39.75,18.14,38.93,43-1.5,45.24-3.5,90.47-5.34,135.7a31.17,31.17,0,0,1-.82,4.81,2.14,2.14,0,0,1-2.68,1.54c-11.22-3.07-21.16-6.85-31.39-7.75-12.35-1.09-25-.19-37.45,1-7.68.71-14.06-4.67-14.28-11.85-.41-13,4.21-24.09,13.57-34.1,17.17-18.37,34.24-36.83,50.81-55.67C991.16,360.21,989.63,340.37,973.07,328ZM767.94,444.15c24.53-5.84,49.07-11.64,73.7-17.11,12.66-2.82,22.65-8.65,30.57-18.45q27.3-33.84,55.54-67c10.73-12.61,24.59-15.32,36.19-8.2A24.14,24.14,0,0,1,969.58,370c-24.17,28.27-48.47,56.45-73.21,84.29-4.28,4.82-10.66,9.93-16.87,11-35,6.25-70.16,11.33-100.77,16.1l-.38,0c-18.18,0-26.13-5.56-27.89-16.22C748.61,454.08,753.87,447.5,767.94,444.15ZM505.88,60.61c28.35,0,51.33,22.38,51.33,50s-23,50-51.33,50-51.33-22.37-51.33-50S477.53,60.61,505.88,60.61Zm64.33,312.46A65.41,65.41,0,0,1,568.63,357c-.14-27.5.06-55-.13-82.52,0-5.59-.93-11.17-1.56-16.76a2,2,0,0,0-2.1-1.76h-1a2,2,0,0,0-2.08,1.74c-.81,6.31-2,12.62-2,18.94-.18,101.11-.11,202.22-.3,303.33a103.27,103.27,0,0,1-2.58,24.17c-3,12.16-11.62,18.18-23.87,18.34-12.76.16-21.7-6.07-24.78-18.75a100.12,100.12,0,0,1-2.44-23c-.24-55-.14-110-.3-165,0-5.24-.87-10.48-1.46-15.73a2,2,0,0,0-2.07-1.76l-1.21,0a2.06,2.06,0,0,0-2.11,1.74c-.71,5.47-1.75,10.93-1.77,16.4-.18,56.94-.13,113.89-.21,170.84a77.55,77.55,0,0,1-.83,13.89A25.8,25.8,0,0,1,469,622.39c-13.38-.46-23.72-9.56-25.21-23-.82-7.29-.53-14.7-.62-22-.08-6.4,0-12.79,0-20.67a2.05,2.05,0,0,0-2.11-2H342a2,2,0,0,1-2.11-2V403.37a2,2,0,0,1,1.95-2l23.19-1.83a2.08,2.08,0,0,0,1.95-1.73c.85-7.53.14-15.63,3.9-21.05,3.36-4.85,11.71-6.7,18.3-9.6a2.19,2.19,0,0,1,2.32.3l1.93,1.64c.46-6,1.29-11.95,1.3-17.92.08-37.32-.13-74.64,0-112,.1-36.93,32.13-67,71.77-67.28q38.28-.3,76.55.07c40.45.42,64.16,22.57,64.41,60.47.29,43.39.07,86.78,0,130.17a42,42,0,0,1-.76,9.24c-2.07,9.26-8.72,13.88-18.55,14.26S572.4,381.48,570.21,373.07Zm126.2,128.35V711.25a2,2,0,0,1-2.11,2h-20a2,2,0,0,1-2.11-2V502.52a2,2,0,0,0-2.11-2H601.34a2.08,2.08,0,0,1-2.1-1.75c-.44-3.65-.83-6.77-1.24-10.15a2,2,0,0,1,2.1-2.19H827.46a2.06,2.06,0,0,1,2.1,1.81c.24,2.82.48,5.69.77,9.07a2,2,0,0,1-2.1,2.12H698.52A2,2,0,0,0,696.41,501.42Zm137.85,75.7c-12.83,36.81-26.28,73.43-39.89,110-2.4,6.45-5.18,14.31-10.56,17.86-6.28,4.14-16.57,7.2-23.33,5.28-6.08-1.73-11.11-10.32-14-16.87-2-4.41-.15-10.73,1.28-15.87,13.37-48,27.21-95.78,40.46-143.76,4.07-14.71,12.67-23,29.24-26,40.82-7.22,81.24-16.46,122.17-22.93,11.89-1.88,25.62,1.13,37.34,5,13.6,4.46,19.95,15.72,19.92,29.48.11,20.76-11.12,32.17-33.8,33.83-35.21,2.58-70.42,5.37-105.68,7.15C844.53,560.94,838.14,566,834.26,577.12Zm194.06,135.27a2,2,0,0,1-2.11,2h-12a2,2,0,0,1-2.11-2V599.08a2,2,0,0,0-2.11-2H876.09a2,2,0,0,0-2.11,2V710a2,2,0,0,1-1.83,2c-24,3.14-24,2.64-24-18.38q0-54,0-108.05c0-15.94,0-16,16.59-16h143.86a2,2,0,0,0,2.12-2V340.26a2,2,0,0,1,2.11-2h13.42a2,2,0,0,1,2.11,2Z" transform="translate(-297 -4.92)"/></svg>
